<svg id="Capa_1" enable-background="new 0 0 513.132 513.132" height="512" viewBox="0 0 513.132 513.132" width="512" xmlns="http://www.w3.org/2000/svg"><g id="XMLID_711_"><path id="XMLID_712_" d="m322.456 35.754h53.66v257.338h-53.66z" transform="matrix(.707 -.707 .707 .707 -13.961 295.141)"/><path id="XMLID_714_" d="m182.428 226.448h148.07v60.442h-148.07z" transform="matrix(.707 -.707 .707 .707 -106.377 256.522)"/><path id="XMLID_715_" d="m381.29 5.566h53.66v198.758h-53.66z" transform="matrix(.707 -.707 .707 .707 45.328 319.322)"/><path id="XMLID_717_" d="m441.541 3.164h46.412v90.442h-46.412z" transform="matrix(.707 -.707 .707 .707 101.909 342.799)"/><path id="XMLID_718_" d="m137.386 220.824h53.66v257.338h-53.66z" transform="matrix(.707 -.707 .707 .707 -199.031 218.483)"/><path id="XMLID_723_" d="m77.909 308.948h53.66v198.758h-53.66z" transform="matrix(.707 -.707 .707 .707 -258.055 193.66)"/><path id="XMLID_724_" d="m25.222 419.629h46.119v90.442h-46.119z" transform="matrix(.707 -.707 .707 .707 -314.56 170.294)"/></g></svg>