<svg id="Capa_1" enable-background="new 0 0 510.083 510.083" height="512" viewBox="0 0 510.083 510.083" width="512" xmlns="http://www.w3.org/2000/svg"><g><g><path d="m510.083 16.247-93.87 163.53h-69.92c-3.935-45.735-16.842-87.974-42.14-124.38 7.902-9.155 17.158-15.591 26.96-21.62 30.784 17.132 63.934 62.198 66.44 118.26l86.51-150.73z"/></g><path d="m159.123 179.777h-152.97c2.22-12.53 8.22-23.41 17.86-32.12 14.86-13.45 30.03-13.62 42.23-13.76 9.82-.11 16.92-.19 24.83-6.12 4.82-3.61 8.67-11.04 12.75-18.91 8.715-18.492 24.839-42.742 56.97-41.25-7.533 31.294-7.009 77.136-1.67 112.16z"/><g><path d="m316.173 179.777h-49.07l-19.34-94.02-29.38 6.04 18.09 87.98h-47.02c-7.284-51.287-9.753-117.752 27.08-161 58.755 26.008 94.062 92.044 99.64 161z"/></g><g><path d="m342.073 450.717v58.06h-220v-58.4c68.537 30.37 151.36 30.489 220 .34z"/></g><g><path d="m451.073 299.777c-33.283 87.248-125.449 144.665-218.621 143.489-93.098 1.176-185.421-56.202-218.479-143.489z"/><path d="m465.093 209.777c.308 19.867-.391 40.873-4.92 60h-455.24c-4.494-19.112-5.198-40.15-4.86-60z"/></g></g></svg>